<svg width="167" height="187" viewBox="0 0 167 187" fill="none" xmlns="http://www.w3.org/2000/svg">
<g filter="url(#filter0_i)">
<path d="M51.906 166.548C80.5056 177.428 112.129 162.015 122.538 132.122C132.948 102.229 118.202 69.1755 89.6018 58.2953C61.0022 47.4151 29.379 62.8281 18.9696 92.7212C8.56018 122.614 23.3063 155.668 51.906 166.548Z" fill="#8F64EB"/>
</g>
<path d="M52.0368 166.172C80.4379 176.977 111.841 161.671 122.179 131.985C132.516 102.3 117.872 69.4758 89.471 58.6712C61.0699 47.8665 29.6664 63.1725 19.3292 92.858C8.99208 122.544 23.6358 155.367 52.0368 166.172Z" stroke="#482B88"/>
<path d="M102.24 146.534L100.048 148.971C99.7436 149.31 99.5339 149.716 99.4306 150.166L99.3249 150.629C99.0004 152.046 97.6495 152.926 95.9442 152.833L92.7396 152.656C92.4005 152.638 92.0699 152.658 91.7545 152.715L84.2247 154.1C83.9101 154.158 83.6131 154.254 83.3422 154.385L80.3312 155.839C79.1999 156.385 77.6929 156.287 76.3519 155.582L74.4982 154.606C74.0259 154.358 73.5246 154.181 73.0194 154.084L67.2209 152.975" stroke="#482B88"/>
<path d="M96.32 153.051L90.8077 155.102C90.6164 155.173 90.4159 155.228 90.2061 155.266L79.3737 157.259C78.7177 157.379 77.9998 157.334 77.2888 157.127L76.0749 156.774" stroke="#482B88"/>
<path d="M23.3899 101.862L22.4695 98.3392C22.3532 97.8944 22.162 97.4744 21.9047 97.1C20.6728 95.3048 21.121 92.8 22.8909 91.5888L23.0412 91.4856C23.4884 91.1792 23.8693 90.7792 24.1594 90.3096L26.7514 86.1192C27.0415 85.6504 27.2343 85.1232 27.3173 84.5712L27.419 83.8976C27.7208 81.8952 29.4106 80.4448 31.351 80.5224L32.09 80.5512C32.5983 80.572 33.1054 80.4864 33.5817 80.3L37.73 78.676" stroke="#482B88"/>
<path d="M20.5561 93.8672L21.8075 89.4928C21.9111 89.1304 22.0634 88.7856 22.2599 88.468L26.0838 82.2856C26.6309 81.4008 27.4904 80.7768 28.4754 80.5488L28.8464 80.4632" stroke="#482B88"/>
<path d="M78.7223 68.4872L82.697 67.312C82.8194 67.2752 82.8806 67.2576 82.9411 67.2368C83.3077 67.1152 83.6545 66.936 83.9698 66.7056C84.0218 66.668 84.0731 66.628 84.1749 66.548C84.6808 66.152 84.9334 65.9536 85.1692 65.8184C86.6441 64.9712 88.4748 65.2304 89.6811 66.4568C89.874 66.652 90.0669 66.9136 90.4541 67.4352L90.7886 67.8872C90.9386 68.0888 91.0129 68.1896 91.0932 68.2848C91.3137 68.5472 91.567 68.7776 91.8456 68.9712C91.9459 69.0416 92.0515 69.1048 92.2627 69.2328L97.3089 72.2776C97.6472 72.4816 97.8164 72.584 97.9932 72.6664C98.2098 72.7688 98.4348 72.8488 98.6652 72.9072C98.8535 72.9544 99.0471 72.9816 99.4336 73.0368L99.6334 73.0656C101.001 73.26 101.685 73.3576 102.236 73.6384C103.111 74.0832 103.789 74.8584 104.136 75.8072C104.355 76.4064 104.387 77.1272 104.452 78.5688C104.469 78.9368 104.478 79.1208 104.501 79.3024C104.54 79.5888 104.607 79.8696 104.703 80.1408C104.764 80.312 104.84 80.4784 104.993 80.8112L107.224 85.6872" stroke="#482B88"/>
<path d="M86.4114 64.2872L91.3596 65.7208C91.8288 65.8568 92.063 65.924 92.2872 66.0224C92.5107 66.1208 92.7212 66.2472 93.1429 66.5016L100.235 70.7816C100.98 71.232 101.354 71.4568 101.663 71.7528C101.932 72.0104 102.164 72.3064 102.353 72.6328C102.569 73.008 102.707 73.4344 102.983 74.2872" stroke="#482B88"/>
<path d="M18.8288 131.606C19.7429 132.171 20.6484 132.718 21.5454 133.247C50.3928 145.344 96.7356 137.476 141.774 48.3464C104.459 122.534 82.5982 169.265 21.5454 133.247C20.4993 132.809 19.4761 132.344 18.4769 131.855C16.7631 131.018 17.2005 130.599 18.8288 131.606Z" fill="white"/>
<path d="M141.774 48.3464C103.911 123.623 81.9591 170.632 18.8288 131.606C17.2005 130.599 16.7631 131.018 18.4769 131.856C47.0298 145.808 95.1023 140.708 141.774 48.3464Z" stroke="#093BEB" stroke-opacity="0.76"/>
<path d="M163.338 1.4496C153.258 4.17712 151.959 6.69296 145.707 17.4567C139.456 28.2205 141.395 30.8842 141.864 47.468C151.789 40.392 156.843 36.0472 163.387 26.4697C167.336 18.0714 167.258 12.5701 163.338 1.4496Z" fill="white" stroke="black" stroke-opacity="0.63"/>
<path d="M153.387 38.0976L142.243 32.4162L134.956 36.5344L130.527 46.0256L142.964 45.652L149.101 55.4944L153.53 46.0032L153.387 38.0976Z" fill="#871E1E" stroke="black" stroke-opacity="0.63"/>
<path d="M150.045 8.93056L165.868 16.9966" stroke="#B62222" stroke-width="2"/>
<defs>
<filter id="filter0_i" x="11.6312" y="50.8059" width="114.245" height="119.231" filterUnits="userSpaceOnUse" color-interpolation-filters="sRGB">
<feFlood flood-opacity="0" result="BackgroundImageFix"/>
<feBlend mode="normal" in="SourceGraphic" in2="BackgroundImageFix" result="shape"/>
<feColorMatrix in="SourceAlpha" type="matrix" values="0 0 0 0 0 0 0 0 0 0 0 0 0 0 0 0 0 0 127 0" result="hardAlpha"/>
<feOffset dx="-25" dy="-4"/>
<feGaussianBlur stdDeviation="2"/>
<feComposite in2="hardAlpha" operator="arithmetic" k2="-1" k3="1"/>
<feColorMatrix type="matrix" values="0 0 0 0 0 0 0 0 0 0 0 0 0 0 0 0 0 0 0.25 0"/>
<feBlend mode="normal" in2="shape" result="effect1_innerShadow"/>
</filter>
</defs>
</svg>
